PathFileType	4	(X/Y/Z)	C:\Users\Basilio\Documents\Thesis Gigler\squatting_fais\c3dfiles\040\SLS_pre_back2\markers_experimental.trc
DataRate	CameraRate	NumFrames	NumMarkers	Units	OrigDataRate	OrigDataStartFrame	OrigNumFrames
200.000000	200.000000	4	63	mm	200.000000	1276	1459
Frame#	Time	FHD			LBHD			RBHD			C7			T10			CLAV			LSHO			LUUPA			LMUPA			LDUPA			LLEP			LMEP			LRAD			LUL			LRFIN			RSHO			RUPA1			RMUPA			RDUPA			RLEP			RMEP			RRAD			RUL			RUFIN			LASI			RASI			USACR			LSACR			RSACR			LTHI1			LTHI2			LTHI3			LTHI4			LLFC			LMFC			LTIB1			LTIB2			LTIB3			LTIB4			LLMAL			LMMAL			LHEE			LMT1			LMT2			LMT5			RTHI			RTHI2			RTHI3			RTHI4			RLFC			RMFC			RTIB1			RTIB2			RTIB3			RTIB4			RLMAL			RMMAL			RHEE			RMT1			RMT2			RMT5			*61			*62			
		X1	Y1	Z1	X2	Y2	Z2	X3	Y3	Z3	X4	Y4	Z4	X5	Y5	Z5	X6	Y6	Z6	X7	Y7	Z7	X8	Y8	Z8	X9	Y9	Z9	X10	Y10	Z10	X11	Y11	Z11	X12	Y12	Z12	X13	Y13	Z13	X14	Y14	Z14	X15	Y15	Z15	X16	Y16	Z16	X17	Y17	Z17	X18	Y18	Z18	X19	Y19	Z19	X20	Y20	Z20	X21	Y21	Z21	X22	Y22	Z22	X23	Y23	Z23	X24	Y24	Z24	X25	Y25	Z25	X26	Y26	Z26	X27	Y27	Z27	X28	Y28	Z28	X29	Y29	Z29	X30	Y30	Z30	X31	Y31	Z31	X32	Y32	Z32	X33	Y33	Z33	X34	Y34	Z34	X35	Y35	Z35	X36	Y36	Z36	X37	Y37	Z37	X38	Y38	Z38	X39	Y39	Z39	X40	Y40	Z40	X41	Y41	Z41	X42	Y42	Z42	X43	Y43	Z43	X44	Y44	Z44	X45	Y45	Z45	X46	Y46	Z46	X47	Y47	Z47	X48	Y48	Z48	X49	Y49	Z49	X50	Y50	Z50	X51	Y51	Z51	X52	Y52	Z52	X53	Y53	Z53	X54	Y54	Z54	X55	Y55	Z55	X56	Y56	Z56	X57	Y57	Z57	X58	Y58	Z58	X59	Y59	Z59	X60	Y60	Z60	X61	Y61	Z61	X62	Y62	Z62	X63	Y63	Z63	

1277	6.38	-89.59023284912111	1793.966064453125	-1257.26708984375	-203.0850830078126	1720.843627929688	-1296.730834960938	-253.4347839355469	1684.496459960938	-1163.517333984375	-237.811996459961	1579.450073242188	-1205.951049804688	-308.8725585937501	1268.51708984375	-1182.37060546875	-116.2771530151367	1497.385620117188	-1200.675048828125	-161.088607788086	1531.83984375	-1369.6748046875	-162.2484130859375	1326.252563476563	-1449.315551757813	-121.6763305664063	1305.572875976563	-1428.58251953125	-152.672348022461	1258.489624023438	-1455.866333007813	-155.585922241211	1196.067138671875	-1452.132202148438	-190.8401947021485	1184.06494140625	-1396.87744140625	31.00451278686524	977.6224365234377	-1400.555786132813	-16.81067848205567	952.2601318359377	-1452.808471679688	86.82439422607423	916.084655761719	-1433.40087890625	-157.635986328125	1530.793579101563	-1042.761840820313	-154.666000366211	1340.28271484375	-935.3980102539065	-112.7424240112305	1323.192138671875	-953.0413818359377	-133.8187866210938	1275.670776367188	-921.9238891601565	-106.6478118896485	1214.013305664063	-915.5681762695315	-153.3612213134766	1184.418823242188	-970.4257812500002	98.84195709228518	1056.675903320313	-1051.280395507813	91.4603958129883	1022.002502441406	-983.7869873046877	175.0730590820313	1017.086181640625	-1060.827514648438	-146.2818756103516	1069.47412109375	-1278.52001953125	-144.7726593017578	1083.840576171875	-1049.953247070313	-328.3240966796876	1128.98876953125	-1158.913818359375	-337.3069458007813	1098.305053710938	-1183.758056640625	-337.5604858398438	1101.602905273438	-1127.34619140625	-262.6370544433594	814.0023193359377	-1314.960571289063	-220.4796447753907	740.5927124023439	-1319.321533203125	-175.0813751220703	746.2682495117189	-1327.8076171875	-238.2314910888672	686.9395751953126	-1302.866821289063	-213.4974975585938	555.0177001953126	-1289.659301757813	-207.3531341552735	543.6817626953126	-1157.7470703125	-215.3999328613282	331.3391723632813	-1231.644287109375	-293.1492614746094	305.3427429199219	-1264.82421875	-253.4029693603516	289.3016967773438	-1253.035400390625	-259.8317260742188	215.0795593261719	-1211.636108398438	-344.6705932617188	140.8462982177735	-1212.68701171875	-307.9055480957032	157.3395233154297	-1134.523559570313	-411.4894104003907	111.9971542358399	-1163.941772460938	-201.0601043701172	57.10479736328126	-1139.34033203125	-203.9912567138672	46.99251556396485	-1184.068969726563	-255.2720031738282	34.68772888183594	-1232.269409179688	-159.7572479248047	817.760925292969	-974.229675292969	-118.2488555908203	765.5680541992189	-979.0754394531252	-86.67113494873048	772.0906982421877	-986.9714965820315	-138.2087554931641	685.4719238281251	-989.038757324219	-134.1566162109375	565.8707275390626	-1001.367736816406	-132.3195037841797	555.7200927734376	-1128.954467773438	-180.6810760498047	382.1235351562501	-1018.501159667969	-285.0487976074219	355.4878540039063	-1001.304016113281	-248.1744079589844	328.0927124023438	-1007.831787109375	-255.2805786132813	278.1999511718751	-1038.637329101563	-361.8264160156251	206.8712463378907	-1021.70556640625	-330.1856384277344	208.3467254638672	-1105.576416015625	-432.3804626464845	186.6710510253907	-1085.365234375	-231.6709747314454	95.84852600097658	-1068.245849609375	-239.4745178222657	99.80783843994143	-1028.141357421875	-292.2686157226563	94.60256195068361	-982.7156372070315	nan	nan	nan	nan	nan	nan	
1278	6.385	-87.33282470703126	1793.663208007813	-1257.207885742188	-200.8925933837891	1719.978881835938	-1296.646118164063	-251.0178985595704	1683.321533203125	-1163.276611328125	-235.2752532958985	1579.400146484375	-1206.02392578125	-308.2405090332032	1268.705932617188	-1182.652709960938	-113.7813110351563	1496.784423828125	-1200.55029296875	-158.3825225830078	1530.5478515625	-1370.126342773438	-164.8182525634766	1324.498291015625	-1448.782470703125	-124.4562377929688	1302.605712890625	-1428.686767578125	-157.0111541748047	1256.191162109375	-1455.180297851563	-161.4178466796875	1194.094604492188	-1450.998413085938	-196.7347106933594	1183.316162109375	-1395.482666015625	17.05024147033692	968.9522705078127	-1401.746704101563	-31.85177421569825	945.2487792968752	-1453.43359375	70.41328430175783	905.8496704101565	-1435.913452148438	-156.0014343261719	1529.103759765625	-1042.607055664063	-157.7729797363282	1338.594604492188	-934.7940673828127	-115.7837905883789	1320.35009765625	-951.937683105469	-137.7137908935547	1273.523559570313	-921.1812744140627	-112.9333267211914	1212.050659179688	-914.740173339844	-158.7368621826172	1182.300903320313	-970.5190429687502	90.72984313964845	1048.510986328125	-1046.439331054688	81.3393020629883	1013.435852050781	-978.988708496094	166.7984771728516	1007.21630859375	-1053.724487304688	-146.0384368896485	1068.983642578125	-1278.453979492188	-144.4077453613282	1083.60009765625	-1049.828002929688	-327.7997741699219	1129.26953125	-1158.815673828125	-337.0939636230469	1098.649658203125	-1183.648193359375	-337.0813293457032	1101.898681640625	-1127.2138671875	-262.7669982910157	813.9550781250002	-1314.947875976563	-220.4741516113282	740.2604980468751	-1319.155639648438	-175.2828063964844	745.9497680664064	-1327.774658203125	-238.4210052490235	686.6932373046876	-1302.755493164063	-213.7867126464844	554.2681884765626	-1289.634155273438	-207.9146575927735	543.3229980468751	-1157.656616210938	-215.5858001708985	331.2517395019532	-1231.591064453125	-293.6138000488282	304.9755859375001	-1264.705200195313	-253.6524658203126	289.0232543945313	-1252.990600585938	-260.1577148437501	214.6408843994141	-1211.344116210938	-345.4216003417969	140.990478515625	-1212.4033203125	-308.1930847167969	157.3028717041016	-1134.492553710938	-411.7245483398439	111.6644363403321	-1163.881469726563	-201.1894226074219	56.94902801513673	-1139.3017578125	-204.0138092041016	47.04882049560548	-1184.091674804688	-255.3365631103516	34.68843841552735	-1232.298828125	-160.442123413086	817.5012817382815	-974.1861572265627	-118.9910202026367	765.1173706054689	-979.282897949219	-87.42148590087892	771.0191650390627	-988.4897460937502	-139.4927215576172	685.2018432617189	-989.2545166015627	-135.4989471435547	564.8595581054689	-1002.061096191406	-133.9219665527344	555.1176757812501	-1129.408081054688	-179.4565124511719	380.7716064453126	-1018.596496582031	-283.3410034179688	352.8494262695313	-1000.958129882813	-245.7592163085938	326.1392822265626	-1006.978759765625	-252.4468231201172	275.7230529785157	-1038.752563476563	-357.7275695800782	202.7458801269532	-1021.100952148438	-326.8785095214844	204.6182556152344	-1105.40185546875	-428.7612609863282	181.2653961181641	-1084.739501953125	-226.4469909667969	94.0972137451172	-1067.77197265625	-233.9609832763672	97.17403411865237	-1028.253540039063	-286.7871704101563	91.77908325195314	-982.4744873046877	nan	nan	nan	nan	nan	nan	
1279	6.390000000000001	-85.48309326171876	1793.648193359375	-1257.412475585938	-198.7308044433594	1719.151245117188	-1296.316650390625	-248.6466217041016	1682.35888671875	-1163.163940429688	-232.4176483154297	1579.049194335938	-1206.129638671875	-306.3753356933594	1269.00537109375	-1182.403564453125	-111.4269790649414	1496.1220703125	-1200.34716796875	-156.7211456298828	1529.625	-1370.21630859375	-167.2109832763672	1322.620727539063	-1448.521850585938	-127.7934951782227	1300.073852539063	-1428.282104492188	-161.3385467529297	1254.173950195313	-1454.207397460938	-167.3076324462891	1192.346801757813	-1450.111083984375	-202.5082702636719	1182.636962890625	-1394.000854492188	3.686145782470704	961.5520019531252	-1402.958862304688	-48.16421508789064	939.5149536132815	-1453.684814453125	53.22961425781251	895.5687255859377	-1438.269897460938	-154.4912567138672	1528.218383789063	-1042.536010742188	-160.4808044433594	1336.945190429688	-934.4980468750002	-118.9119186401367	1317.622924804688	-951.0069580078127	-142.2852172851563	1271.731323242188	-920.7431640625002	-118.75	1209.074096679688	-914.273376464844	-164.7647399902344	1181.156494140625	-970.3830566406252	82.73708343505861	1040.409301757813	-1041.2197265625	70.01846313476564	1005.293273925781	-974.6386718750002	158.3564910888672	997.8557128906252	-1047.052368164063	-145.8519439697266	1068.564331054688	-1278.35302734375	-143.9900207519532	1083.141967773438	-1049.797973632813	-327.3420410156251	1129.519775390625	-1158.63818359375	-336.8506469726563	1098.950805664063	-1183.5625	-336.8506164550782	1102.257690429688	-1127.212158203125	-262.9413452148438	813.835632324219	-1315.045166015625	-220.8075103759766	739.9380493164064	-1319.344970703125	-175.2015686035157	745.5465698242189	-1327.537719726563	-238.6148986816407	686.4719238281251	-1302.677001953125	-214.2634277343751	554.0495605468751	-1289.526000976563	-208.628158569336	542.9900512695314	-1157.620727539063	-216.1478576660157	330.7590332031251	-1231.63623046875	-294.0528564453126	304.6828918457032	-1264.620361328125	-254.1567077636719	288.8754577636719	-1252.946899414063	-260.3277893066407	214.1928253173829	-1211.187866210938	-345.8012695312501	140.7917175292969	-1212.37109375	-308.4776306152344	156.8829956054688	-1134.231201171875	-411.816619873047	111.3530654907227	-1163.771362304688	-201.2006835937501	57.074275970459	-1139.296752929688	-204.0828094482422	47.04843139648438	-1184.023803710938	-255.2295379638672	34.64282226562501	-1232.316650390625	-161.2716369628907	817.013610839844	-974.1867675781252	-119.6657638549805	764.8166503906251	-979.1707763671877	-88.51805877685548	770.4171142578127	-988.621520996094	-140.7530364990235	684.9393920898439	-989.6128540039065	-136.5037384033203	564.6468505859376	-1002.2294921875	-134.8475494384766	553.9491577148439	-1130.012817382813	-178.3505096435547	379.7231750488282	-1018.823120117188	-281.7755126953126	350.1290588378907	-1000.767944335938	-244.5802459716797	323.3747253417969	-1007.738098144531	-250.0420837402344	273.7360534667969	-1038.505004882813	-354.5770568847657	198.638412475586	-1021.122680664063	-323.3580627441407	200.9407043457032	-1105.131591796875	-424.9698791503907	176.2183837890625	-1084.235473632813	-221.2174377441407	91.60054016113283	-1067.230346679688	-228.5316467285157	94.89356231689455	-1028.193237304688	-281.3507690429688	88.73673248291017	-982.1435546875002	nan	nan	nan	nan	nan	nan	
1280	6.395	-84.55664825439455	1793.363037109375	-1256.372924804688	-196.6161804199219	1718.440185546875	-1296.338134765625	-246.1134948730469	1681.413452148438	-1162.992309570313	-230.1168060302735	1578.919311523438	-1205.972900390625	-305.8392944335938	1269.122192382813	-1182.684692382813	-109.0090637207032	1495.168701171875	-1200.214111328125	-154.1395263671875	1528.698486328125	-1370.898803710938	-169.992416381836	1321.03857421875	-1447.831665039063	-130.6502532958985	1297.328735351563	-1427.87841796875	-165.545166015625	1252.347778320313	-1453.3564453125	-173.1069030761719	1190.856079101563	-1448.961181640625	-208.2233276367188	1182.196044921875	-1392.587280273438	-10.95752048492432	954.1302490234377	-1404.110229492188	-63.42877578735353	933.822448730469	-1454.563598632813	35.54917526245118	885.646911621094	-1440.756103515625	-152.7621612548828	1527.1474609375	-1041.819702148438	-163.6225280761719	1335.689575195313	-934.1221923828127	-122.2537918090821	1315.979736328125	-950.136657714844	-146.8550872802735	1269.773681640625	-920.2749023437502	-125.1660690307617	1206.91259765625	-913.2551269531252	-170.4517211914063	1180.07861328125	-970.2044677734377	74.42574310302736	1032.265380859375	-1036.345336914063	59.71621322631837	997.7288208007815	-969.6231079101565	149.7689666748047	987.9196777343752	-1039.14111328125	-145.5413055419922	1068.048095703125	-1278.162963867188	-143.4814147949219	1082.8583984375	-1049.747314453125	-326.6176452636719	1129.87158203125	-1158.626708984375	-336.2486572265626	1099.298095703125	-1183.505004882813	-336.4881896972657	1102.59619140625	-1127.1416015625	-262.5338745117188	813.5354614257815	-1314.684814453125	-220.5765686035157	739.5729370117189	-1319.009155273438	-175.288330078125	745.2985839843751	-1327.4970703125	-238.8218841552735	686.2978515625001	-1302.642700195313	-214.7713928222657	554.1586303710939	-1289.428588867188	-209.3807220458985	542.7703247070314	-1157.505859375	-216.6654510498047	330.2764282226563	-1231.537353515625	-294.4774780273438	304.4828491210938	-1264.492431640625	-254.509262084961	288.6803283691407	-1253.008666992188	-260.9403991699219	214.1991271972657	-1210.997680664063	-346.0911560058594	140.5533142089844	-1212.25048828125	-308.6534118652344	156.8126373291016	-1134.138427734375	-412.0997009277345	111.0517807006836	-1163.566040039063	-201.9205322265626	57.12050247192384	-1139.044677734375	-205.9136657714844	46.04945755004884	-1184.044555664063	-255.2987213134766	34.66330718994141	-1232.259643554688	-161.5375061035157	816.8721313476565	-974.2613525390627	-120.5063781738282	763.8192138671876	-979.3625488281252	-88.75902557373048	770.464538574219	-988.085388183594	-141.9841613769532	684.4053955078126	-989.9998779296877	-138.0343322753907	563.7692871093751	-1002.484008789063	-136.7722625732422	553.8041992187501	-1130.2724609375	-177.6296997070313	377.9625854492188	-1018.783630371094	-280.4916076660157	347.3284301757813	-1000.708129882813	-242.8538208007813	321.4141235351563	-1007.875549316406	-247.8517761230469	271.3364257812501	-1038.210327148438	-350.9689025878907	194.6235961914063	-1020.631103515625	-319.9289245605469	197.4478149414063	-1104.853759765625	-421.1780395507814	171.0200500488282	-1083.804931640625	-216.3234252929688	90.65452575683595	-1067.072875976563	-223.2733001708985	92.88930511474611	-1028.1796875	-275.9353637695313	86.01902008056642	-981.7505493164065	nan	nan	nan	nan	nan	nan	
